<?xml version="1.0" standalone="no"?>
<!DOCTYPE svg PUBLIC "-//W3C//DTD SVG 20010904//EN"
 "http://www.w3.org/TR/2001/REC-SVG-20010904/DTD/svg10.dtd">
<svg version="1.0" xmlns="http://www.w3.org/2000/svg"
 width="512.000000pt" height="512.000000pt" viewBox="0 0 512.000000 512.000000"
 preserveAspectRatio="xMidYMid meet">
<metadata>
Created by potrace 1.14, written by Peter Selinger 2001-2017
</metadata>
<g transform="translate(0.000000,512.000000) scale(0.100000,-0.100000)"
fill="#000000" stroke="none">
<path d="M1057 4584 c-1 -1 -47 -4 -102 -8 -109 -7 -149 -12 -210 -28 -22 -5
-40 -9 -40 -8 0 9 -130 -59 -180 -95 -152 -108 -242 -256 -280 -460 -15 -84
-19 -348 -19 -1425 0 -1310 2 -1366 42 -1530 40 -163 201 -348 367 -421 41
-18 183 -56 215 -58 8 0 56 -3 105 -7 115 -10 3077 -10 3210 -1 55 4 109 9
120 11 23 4 97 19 105 21 210 49 420 265 468 480 34 151 36 211 36 1490 0
1083 -4 1357 -19 1438 -34 180 -78 269 -185 376 -90 90 -107 103 -185 141 -81
40 -161 60 -305 76 -51 6 -3136 13 -3143 8z"/>
</g>
</svg>
